<svg xmlns="http://www.w3.org/2000/svg" width="36" height="36" fill="none" viewBox="0 0 36 36">
  <path fill="#403F3D" d="M26.707 18.63c-.037-3.998 3.358-5.943 3.513-6.033-1.922-2.733-4.902-3.107-5.95-3.137-2.502-.256-4.93 1.46-6.205 1.46-1.3 0-3.263-1.435-5.38-1.393-2.722.041-5.27 1.579-6.666 3.965-2.884 4.867-.733 12.019 2.029 15.953 1.382 1.926 2.996 4.077 5.11 4.002 2.067-.084 2.84-1.286 5.335-1.286 2.472 0 3.197 1.286 5.353 1.237 2.219-.035 3.616-1.935 4.95-3.879 1.596-2.208 2.237-4.383 2.263-4.494-.052-.018-4.31-1.602-4.352-6.394ZM22.636 6.873c1.112-1.356 1.873-3.201 1.661-5.073-1.61.07-3.622 1.086-4.781 2.412-1.026 1.168-1.942 3.084-1.705 4.885 1.808.132 3.664-.89 4.825-2.224Z"/>
</svg>
