<svg xmlns="http://www.w3.org/2000/svg" width="36" height="36" fill="none" viewBox="0 0 36 36">
  <path fill="#403F3D" d="M3.756 3.203c-.363.37-.572.946-.572 1.692v26.604c0 .746.21 1.322.572 1.692l.09.081 15.29-14.902v-.352L3.846 3.116l-.09.087ZM26.078 23.34l-5.092-4.97v-.352l5.098-4.97.114.065 6.036 3.349c1.723.95 1.723 2.514 0 3.47l-6.036 3.343-.12.065ZM25.273 24.2l-5.211-5.08-15.38 14.997c.572.586 1.505.657 2.566.07l18.025-9.986ZM25.273 12.188 7.248 2.2c-1.061-.58-1.994-.51-2.566.077l15.38 14.99 5.211-5.08Z"/>
</svg>
